{"title":"Inland Empire[x264][AC3(5.1)] Nordic_Sub.mkv","uid":5252398,"size":2738584065,"categoryP":"video","categoryS":"movies","magnet":"?xt=urn:btih:a02468966fc3cd6bd301baac411a2e6e6fe9c0fe&amp;dn=Inland+Empire%5Bx264%5D%5BAC3%285.1%29%5D+Nordic_Sub.mkv&amp;tr=udp%3A%2F%2Ftracker.openbittorrent.com%3A80&amp;tr=udp%3A%2F%2Fopen.demonii.com%3A1337&amp;tr=udp%3A%2F%2Ftracker.coppersurfer.tk%3A6969&amp;tr=udp%3A%2F%2Fexodus.desync.com%3A6969","seeders":0,"leechers":0,"uploader":"Zen_Bud","files":-1,"time":1262416053,"description":"General\nComplete name                    : Inland Empire.mkv\nFormat                           : Matroska\nFile size                        : 2.55 GiB\nDuration                         : 2h 52mn\nOverall bit rate                 : 2 118 Kbps\n\n\nVideo\nID                               : 1\nFormat                           : AVC\nDuration                         : 2h 52mn\nBit rate                         : 1 628 Kbps\nNominal bit rate                 : 1 658 Kbps\nWidth                            : 720 pixels\nHeight                           : 550 pixels\nDisplay aspect ratio             : 1.862\nFrame rate                       : 25.000 fps\nResolution                       : 8 bits\nColorimetry                      : 4:2:0\nScan type                        : Progressive\nBits/(Pixel*Frame)               : 0.164\nStream size                      : 1.96 GiB (77%)\nWriting library                  : x264 core 79\n\n\nAudio\nID                               : 2\nFormat                           : AC-3\nFormat/Info                      : Audio Coding 3\nCodec ID                         : A_AC3\nDuration                         : 2h 52mn\nBit rate mode                    : Constant\nBit rate                         : 448 Kbps\nChannel(s)                       : 6 channels\nChannel positions                : Front: L C R, Surround: L R, LFE\nSampling rate                    : 48.0 KHz\nStream size                      : 552 MiB (21%)\nLanguage                         : English\n\nText #1\nLanguage                         : Finnish\n\nText #2\nLanguage                         : Swedish\n\nText #3\nLanguage                         : Danish\n\nText #4\nLanguage                         : Norwegian\n\nMenu\n00:00:00.000                     : Chapter 1\n01:13:02.840                     : Chapter 2\n01:33:03.004                     : Chapter 3\n\n","torrent":{"xt":"urn:btih:a02468966fc3cd6bd301baac411a2e6e6fe9c0fe","amp;dn":"Inland+Empire%5Bx264%5D%5BAC3%285.1%29%5D+Nordic_Sub.mkv","amp;tr":["udp%3A%2F%2Ftracker.openbittorrent.com%3A80","udp%3A%2F%2Fopen.demonii.com%3A1337","udp%3A%2F%2Ftracker.coppersurfer.tk%3A6969","udp%3A%2F%2Fexodus.desync.com%3A6969"],"infoHash":"a02468966fc3cd6bd301baac411a2e6e6fe9c0fe","infoHashBuffer":{"type":"Buffer","data":[160,36,104,150,111,195,205,107,211,1,186,172,65,26,46,110,111,233,192,254]},"announce":[],"urlList":[]}}